<?xml version="1.0" encoding="utf-8"?>
<!-- Generator: Adobe Illustrator 25.2.1, SVG Export Plug-In . SVG Version: 6.00 Build 0)  -->
<svg version="1.1" id="Layer_1" xmlns="http://www.w3.org/2000/svg" xmlns:xlink="http://www.w3.org/1999/xlink" x="0px" y="0px"
	 viewBox="0 0 235.33 235.33" style="enable-background:new 0 0 235.33 235.33;" xml:space="preserve">
<style type="text/css">
	.st0{fill:#FFFFFF;stroke:#000000;stroke-width:6;stroke-miterlimit:10;}
	.st1{fill:none;}
</style>
<rect x="2.72" y="2.83" class="st0" width="230" height="230"/>
<g>
	<rect x="21.33" y="42.62" class="st1" width="78.08" height="152.05"/>
	<path d="M36,78.77h10.88v40.62h0.38c2.25-3.25,4.5-6.25,6.62-9l25.75-31.62h13.5l-30.5,35.75l32.88,48.5H82.62l-27.75-41.37
		l-8,9.25v32.12H36V78.77z"/>
</g>
<g>
	<rect x="132.51" y="42.64" class="st1" width="78.08" height="152.05"/>
	<path d="M148.74,149.79c4.88,3,12,5.5,19.5,5.5c11.12,0,17.62-5.88,17.62-14.38c0-7.88-4.5-12.38-15.88-16.75
		c-13.75-4.88-22.25-12-22.25-23.88c0-13.12,10.88-22.88,27.25-22.88c8.62,0,14.88,2,18.62,4.12l-3,8.88c-2.75-1.5-8.38-4-16-4
		c-11.5,0-15.88,6.88-15.88,12.62c0,7.88,5.12,11.75,16.75,16.25c14.25,5.5,21.5,12.38,21.5,24.75c0,13-9.62,24.25-29.5,24.25
		c-8.12,0-17-2.38-21.5-5.38L148.74,149.79z"/>
</g>
<path class="st0" d="M117.72,214.67c0-192,0-192,0-192V214.67z"/>
<g>
</g>
<g>
</g>
<g>
</g>
<g>
</g>
<g>
</g>
<g>
</g>
</svg>
